<svg width="40" height="40" viewBox="0 0 40 40" fill="none" xmlns="http://www.w3.org/2000/svg">
<g clip-path="url(#clip0_2051_2)">
<path d="M34.6766 8.23425C32.1621 7.56316 29.7057 6.69116 27.3309 5.62665C24.9945 4.61314 22.7391 3.42237 20.5844 2.06477L19.9741 1.6875L19.3749 2.07587C17.2202 3.43347 14.9648 4.62423 12.6284 5.63774C10.2497 6.69903 7.78955 7.56733 5.27167 8.23425L4.43945 8.44508V17.6993C4.43945 32.5571 19.4526 38.1163 19.5968 38.1718L19.9741 38.3049L20.3514 38.1718C20.5067 38.1718 35.5088 32.5682 35.5088 17.6993V8.44508L34.6766 8.23425ZM33.2895 17.6993C33.2895 29.9051 22.1933 35.0204 19.9741 35.9303C17.7549 35.0204 6.65869 29.894 6.65869 17.6993V10.165C8.9994 9.49207 11.2907 8.65786 13.5161 7.66834C15.7417 6.7063 17.8993 5.59412 19.9741 4.33949C22.0489 5.59412 24.2065 6.7063 26.4321 7.66834C28.6575 8.65786 30.9488 9.49207 33.2895 10.165V17.6993Z" fill="#3E63DD"/>
<path d="M12.0716 18.7424C11.8593 18.5606 11.5863 18.4656 11.307 18.4764C11.0278 18.4872 10.7629 18.603 10.5652 18.8006C10.3676 18.9982 10.2518 19.2631 10.2411 19.5424C10.2303 19.8217 10.3253 20.0947 10.5071 20.307L17.1648 26.9647L29.2929 15.3026C29.5048 15.0966 29.6262 14.8149 29.6303 14.5194C29.6345 14.2239 29.5211 13.9388 29.3151 13.7269C29.1091 13.5151 28.8273 13.3937 28.5319 13.3895C28.2364 13.3854 27.9513 13.4987 27.7394 13.7047L17.2313 23.9021L12.0716 18.7424Z" fill="#3E63DD"/>
</g>
<defs>
<clipPath id="clip0_2051_2">
<rect width="39.9463" height="39.9463" fill="white" transform="translate(0 0.0231934)"/>
</clipPath>
</defs>
</svg>
